# xmcd
# 
# Track frame offsets:
#     150
#     18090
#     34611
#     49820
#     75948
#     96826
#     115428
#     134081
#     177346
#     191377
#     202213
#     217905
#     237277
#     258548
#     301999
#     330465
# 
# Disc length: 4642
# 
# Revision: 2
# Processed by: cddbd v1.5.2PL0 Copyright (c) Steve Scherf et al.
# Submitted via: fre:ac v1.0.31
# 
DISCID=da122010
DTITLE=Poco - Deliverin'/Crazy Eyes
DYEAR=1971
DGENRE=Rock/Pop
TTITLE0=Deliverin' - I Guess You Made It [live]
TTITLE1=Deliverin' - C'mon [live]
TTITLE2=Deliverin' - Hear That Music [live]
TTITLE3=Deliverin' - Kind Woman [live]
TTITLE4=Deliverin' - Medley: Hard Luck/Child's Claim To Fame/Pickin' Up The Pieces [live]
TTITLE5=Deliverin' - You'd Better Think Twice [live]
TTITLE6=Deliverin' - A Man Like Me [live]
TTITLE7=Deliverin' - Medley: Just In Case It Happens, Yes Indeed/Grand Junction/Consequently So Long [live]
TTITLE8=Crazy Eyes - Blue Water
TTITLE9=Crazy Eyes - Fool's Gold
TTITLE10=Crazy Eyes - Here We Go Again
TTITLE11=Crazy Eyes - Brass Buttons
TTITLE12=Crazy Eyes - A Right Along
TTITLE13=Crazy Eyes - Crazy Eyes
TTITLE14=Crazy Eyes - Magnolia
TTITLE15=Crazy Eyes - Let's Dance Tonight
EXTD=
EXTT0=
EXTT1=
EXTT2=
EXTT3=
EXTT4=
EXTT5=
EXTT6=
EXTT7=
EXTT8=
EXTT9=
EXTT10=
EXTT11=
EXTT12=
EXTT13=
EXTT14=
EXTT15=
PLAYORDER=
